<svg width="4063" height="153" viewBox="0 0 4063 153" fill="none" xmlns="http://www.w3.org/2000/svg">
<g opacity="0.03">
<path d="M0 150.26V2.73967H28.8673V123.917H93.766V150.26H0Z" fill="url(#paint0_linear_2_2)"/>
<path d="M211.155 150.26L154.684 2.73967H183.552L241.708 150.26H211.155ZM94.6319 150.26L152.788 2.73967H181.655L125.185 150.26H94.6319ZM122.024 117.806V92.3058H214.526V117.806H122.024Z" fill="url(#paint1_linear_2_2)"/>
<path d="M359.175 150.26L401.528 2.73967H430.817L386.778 150.26H359.175ZM270.256 150.26L226.639 2.73967H255.927L297.859 150.26H270.256ZM274.048 150.26L314.294 2.73967H340.422L300.387 150.26H274.048ZM356.436 150.26L316.822 2.73967H342.951L384.039 150.26H356.436Z" fill="url(#paint2_linear_2_2)"/>
<path d="M510.118 89.3554L482.936 82.4008L530.346 2.73967H563.217L510.118 89.3554ZM482.093 150.26V79.4504H510.961V150.26H482.093ZM482.936 89.3554L429.837 2.73967H462.708L510.118 82.4008L482.936 89.3554Z" fill="url(#paint3_linear_2_2)"/>
<path d="M576.589 150.26V2.73967H669.933V29.0826H605.456V62.5909H661.083V88.3017H605.456V123.917H670.776V150.26H576.589Z" fill="url(#paint4_linear_2_2)"/>
<path d="M696.455 150.26V2.73967H751.239C761.634 2.73967 770.835 4.77686 778.842 8.85125C786.849 12.9256 793.1 18.5455 797.596 25.7108C802.091 32.7355 804.338 40.9545 804.338 50.3678C804.338 59.6405 801.95 67.9298 797.174 75.2355C792.539 82.4008 786.147 88.0207 778 92.095C769.852 96.0289 760.581 97.9959 750.186 97.9959H725.322V150.26H696.455ZM777.578 150.26L743.443 91.0413L765.568 75.2355L810.238 150.26H777.578ZM725.322 71.6529H751.45C755.805 71.6529 759.668 70.7397 763.039 68.9132C766.551 67.0868 769.29 64.5579 771.257 61.3264C773.364 58.095 774.417 54.4421 774.417 50.3678C774.417 44.0455 772.1 38.9174 767.464 34.9835C762.969 31.0496 757.139 29.0826 749.975 29.0826H725.322V71.6529Z" fill="url(#paint5_linear_2_2)"/>
<path d="M877.567 152.789C870.122 152.789 863.168 151.876 856.706 150.05C850.245 148.223 844.485 145.694 839.428 142.463C834.371 139.091 830.157 135.368 826.786 131.293C823.555 127.219 821.448 122.934 820.464 118.438L848.699 110.008C850.526 114.785 853.756 118.93 858.392 122.442C863.028 125.814 868.857 127.57 875.881 127.711C883.326 127.851 889.366 126.236 894.002 122.864C898.778 119.492 901.166 115.136 901.166 109.798C901.166 105.161 899.27 101.298 895.477 98.2066C891.825 94.9752 886.768 92.5165 880.306 90.8306L861.131 85.7727C853.967 83.9463 847.646 81.2066 842.167 77.5537C836.689 73.7603 832.404 69.124 829.314 63.6446C826.224 58.1653 824.678 51.7727 824.678 44.4669C824.678 30.5579 829.244 19.7397 838.375 12.0124C847.646 4.14464 860.71 0.210754 877.567 0.210754C886.978 0.210754 895.196 1.61571 902.22 4.42563C909.384 7.09505 915.354 10.9587 920.13 16.0165C924.906 21.0744 928.559 27.0455 931.087 33.9298L903.063 42.5702C901.377 37.7934 898.287 33.719 893.791 30.3471C889.296 26.9752 883.607 25.2893 876.724 25.2893C869.7 25.2893 864.151 26.905 860.078 30.1364C856.144 33.3678 854.178 37.9339 854.178 43.8347C854.178 48.4711 855.723 52.124 858.814 54.7934C862.044 57.4628 866.399 59.5 871.878 60.905L891.263 65.7521C903.905 68.843 913.739 74.3926 920.762 82.4008C927.786 90.4091 931.298 99.3306 931.298 109.165C931.298 117.876 929.191 125.533 924.977 132.136C920.762 138.599 914.652 143.657 906.645 147.31C898.638 150.963 888.945 152.789 877.567 152.789Z" fill="url(#paint6_linear_2_2)"/>
<path d="M1035.33 153C1026.62 153 1018.89 151.314 1012.15 147.942C1005.41 144.57 1000.14 139.934 996.345 134.033C992.552 128.132 990.656 121.318 990.656 113.591C990.656 108.252 991.639 103.335 993.605 98.8388C995.572 94.343 998.311 90.1983 1001.82 86.405C1005.34 82.4711 1009.27 79.0289 1013.62 76.0785L1041.44 56.9008C1043.68 55.3554 1046.07 53.5992 1048.6 51.6322C1051.27 49.6653 1053.59 47.3471 1055.55 44.6777C1057.66 41.8678 1058.71 38.7066 1058.71 35.1942C1058.71 31.1198 1057.24 27.9587 1054.29 25.7108C1051.34 23.3223 1047.62 22.1281 1043.12 22.1281C1038.91 22.1281 1035.33 23.3223 1032.38 25.7108C1029.57 28.0992 1028.16 31.1901 1028.16 34.9835C1028.16 38.6364 1029.29 41.8678 1031.53 44.6777C1033.78 47.3471 1036.38 50.5083 1039.33 54.1612L1067.35 87.8802L1118.98 150.26H1086.53L1047.34 103.475L1017.84 67.6488C1014.04 62.7314 1010.88 58.4463 1008.36 54.7934C1005.97 51 1004.21 47.5579 1003.09 44.4669C1001.96 41.2355 1001.4 38.0041 1001.4 34.7727C1001.4 28.0289 1003.16 22.0579 1006.67 16.8595C1010.32 11.6612 1015.17 7.58678 1021.21 4.63637C1027.39 1.54546 1034.27 0 1041.86 0C1050.15 0 1057.52 1.54546 1063.98 4.63637C1070.44 7.58678 1075.5 11.7314 1079.15 17.0703C1082.95 22.4091 1084.84 28.6612 1084.84 35.8264C1084.84 41.5868 1083.37 46.9256 1080.42 51.843C1077.47 56.6198 1073.11 61.4669 1067.35 66.3843C1061.74 71.3017 1054.85 76.5703 1046.7 82.1901L1031.74 92.5165C1029.5 94.062 1027.39 95.8182 1025.42 97.7851C1023.6 99.7521 1022.12 102 1021 104.529C1019.87 106.917 1019.31 109.727 1019.31 112.959C1019.31 117.736 1020.93 121.669 1024.16 124.76C1027.53 127.851 1031.81 129.397 1037.01 129.397C1042.91 129.397 1048.74 128.483 1054.5 126.657C1060.26 124.831 1065.46 122.091 1070.09 118.438C1074.87 114.785 1078.59 110.289 1081.26 104.95C1083.93 99.6116 1085.26 93.5 1085.26 86.6157H1111.18C1111.18 99.5413 1107.95 111.062 1101.49 121.178C1095.03 131.153 1086.11 138.95 1074.73 144.57C1063.35 150.19 1050.22 153 1035.33 153Z" fill="url(#paint7_linear_2_2)"/>
<path d="M1241.14 152.789C1226.81 152.789 1214.09 149.558 1203 143.095C1191.9 136.492 1183.19 127.5 1176.87 116.12C1170.55 104.599 1167.39 91.3926 1167.39 76.5C1167.39 61.6074 1170.55 48.4711 1176.87 37.0909C1183.19 25.5703 1191.83 16.5785 1202.79 10.1157C1213.88 3.51241 1226.6 0.210754 1240.92 0.210754C1251.04 0.210754 1260.45 2.0372 1269.16 5.69008C1277.87 9.20249 1285.45 14.1901 1291.92 20.6529C1298.52 26.9752 1303.58 34.281 1307.09 42.5702L1280.33 52.4752C1277.94 47.2769 1274.78 42.781 1270.85 38.9876C1266.91 35.0537 1262.42 32.0331 1257.36 29.9256C1252.3 27.6777 1246.82 26.5537 1240.92 26.5537C1232.36 26.5537 1224.7 28.7314 1217.96 33.0868C1211.36 37.3017 1206.16 43.1322 1202.36 50.5785C1198.71 58.0248 1196.89 66.6653 1196.89 76.5C1196.89 86.3347 1198.78 95.0455 1202.58 102.632C1206.37 110.079 1211.64 115.979 1218.38 120.335C1225.12 124.55 1232.85 126.657 1241.56 126.657C1247.6 126.657 1253.08 125.533 1257.99 123.285C1263.05 120.897 1267.47 117.665 1271.27 113.591C1275.2 109.517 1278.36 104.81 1280.75 99.4711L1307.51 109.165C1304 117.736 1298.94 125.322 1292.34 131.926C1285.88 138.529 1278.29 143.657 1269.58 147.31C1260.87 150.963 1251.39 152.789 1241.14 152.789Z" fill="url(#paint8_linear_2_2)"/>
<path d="M1324.49 150.26V2.73967H1353.36V123.917H1418.26V150.26H1324.49Z" fill="url(#paint9_linear_2_2)"/>
<path d="M1433.45 150.26V2.73967H1462.32V150.26H1433.45Z" fill="url(#paint10_linear_2_2)"/>
<path d="M1490.15 150.26V2.73967H1583.49V29.0826H1519.02V62.5909H1574.64V88.3017H1519.02V123.917H1584.34V150.26H1490.15Z" fill="url(#paint11_linear_2_2)"/>
<path d="M1610.02 150.26V2.73967H1640.15L1712.21 101.789V2.73967H1740.87V150.26H1712.21L1638.88 49.314V150.26H1610.02Z" fill="url(#paint12_linear_2_2)"/>
<path d="M1799.96 150.26V29.0826H1755.71V2.73967H1872.86V29.0826H1828.82V150.26H1799.96Z" fill="url(#paint13_linear_2_2)"/>
<path d="M1937.13 152.789C1929.68 152.789 1922.73 151.876 1916.27 150.05C1909.8 148.223 1904.04 145.694 1898.99 142.463C1893.93 139.091 1889.72 135.368 1886.34 131.293C1883.11 127.219 1881.01 122.934 1880.02 118.438L1908.26 110.008C1910.09 114.785 1913.32 118.93 1917.95 122.442C1922.59 125.814 1928.42 127.57 1935.44 127.711C1942.89 127.851 1948.93 126.236 1953.56 122.864C1958.34 119.492 1960.73 115.136 1960.73 109.798C1960.73 105.161 1958.83 101.298 1955.04 98.2066C1951.38 94.9752 1946.33 92.5165 1939.87 90.8306L1920.69 85.7727C1913.53 83.9463 1907.21 81.2066 1901.73 77.5537C1896.25 73.7603 1891.96 69.124 1888.87 63.6446C1885.78 58.1653 1884.24 51.7727 1884.24 44.4669C1884.24 30.5579 1888.8 19.7397 1897.93 12.0124C1907.21 4.14464 1920.27 0.210754 1937.13 0.210754C1946.54 0.210754 1954.76 1.61571 1961.78 4.42563C1968.94 7.09505 1974.91 10.9587 1979.69 16.0165C1984.47 21.0744 1988.12 27.0455 1990.65 33.9298L1962.62 42.5702C1960.94 37.7934 1957.85 33.719 1953.35 30.3471C1948.86 26.9752 1943.17 25.2893 1936.28 25.2893C1929.26 25.2893 1923.71 26.905 1919.64 30.1364C1915.7 33.3678 1913.74 37.9339 1913.74 43.8347C1913.74 48.4711 1915.28 52.124 1918.37 54.7934C1921.6 57.4628 1925.96 59.5 1931.44 60.905L1950.82 65.7521C1963.46 68.843 1973.3 74.3926 1980.32 82.4008C1987.35 90.4091 1990.86 99.3306 1990.86 109.165C1990.86 117.876 1988.75 125.533 1984.54 132.136C1980.32 138.599 1974.21 143.657 1966.2 147.31C1958.2 150.963 1948.5 152.789 1937.13 152.789Z" fill="url(#paint14_linear_2_2)"/>
<path d="M2072.14 150.26V2.73967H2101.01V123.917H2165.91V150.26H2072.14Z" fill="url(#paint15_linear_2_2)"/>
<path d="M2283.3 150.26L2226.83 2.73967H2255.69L2313.85 150.26H2283.3ZM2166.77 150.26L2224.93 2.73967H2253.8L2197.33 150.26H2166.77ZM2194.17 117.806V92.3058H2286.67V117.806H2194.17Z" fill="url(#paint16_linear_2_2)"/>
<path d="M2431.32 150.26L2473.67 2.73967H2502.96L2458.92 150.26H2431.32ZM2342.4 150.26L2298.78 2.73967H2328.07L2370 150.26H2342.4ZM2346.19 150.26L2386.44 2.73967H2412.56L2372.53 150.26H2346.19ZM2428.58 150.26L2388.97 2.73967H2415.09L2456.18 150.26H2428.58Z" fill="url(#paint17_linear_2_2)"/>
<path d="M2582.26 89.3554L2555.08 82.4008L2602.49 2.73967H2635.36L2582.26 89.3554ZM2554.24 150.26V79.4504H2583.1V150.26H2554.24ZM2555.08 89.3554L2501.98 2.73967H2534.85L2582.26 82.4008L2555.08 89.3554Z" fill="url(#paint18_linear_2_2)"/>
<path d="M2648.73 150.26V2.73967H2742.08V29.0826H2677.6V62.5909H2733.23V88.3017H2677.6V123.917H2742.92V150.26H2648.73Z" fill="url(#paint19_linear_2_2)"/>
<path d="M2768.6 150.26V2.73967H2823.38C2833.78 2.73967 2842.98 4.77686 2850.99 8.85125C2858.99 12.9256 2865.24 18.5455 2869.74 25.7108C2874.23 32.7355 2876.48 40.9545 2876.48 50.3678C2876.48 59.6405 2874.09 67.9298 2869.32 75.2355C2864.68 82.4008 2858.29 88.0207 2850.14 92.095C2841.99 96.0289 2832.72 97.9959 2822.33 97.9959H2797.46V150.26H2768.6ZM2849.72 150.26L2815.59 91.0413L2837.71 75.2355L2882.38 150.26H2849.72ZM2797.46 71.6529H2823.59C2827.95 71.6529 2831.81 70.7397 2835.18 68.9132C2838.69 67.0868 2841.43 64.5579 2843.4 61.3264C2845.51 58.095 2846.56 54.4421 2846.56 50.3678C2846.56 44.0455 2844.24 38.9174 2839.61 34.9835C2835.11 31.0496 2829.28 29.0826 2822.12 29.0826H2797.46V71.6529Z" fill="url(#paint20_linear_2_2)"/>
<path d="M2949.71 152.789C2942.26 152.789 2935.31 151.876 2928.85 150.05C2922.39 148.223 2916.63 145.694 2911.57 142.463C2906.51 139.091 2902.3 135.368 2898.93 131.293C2895.7 127.219 2893.59 122.934 2892.61 118.438L2920.84 110.008C2922.67 114.785 2925.9 118.93 2930.53 122.442C2935.17 125.814 2941 127.57 2948.02 127.711C2955.47 127.851 2961.51 126.236 2966.14 122.864C2970.92 119.492 2973.31 115.136 2973.31 109.798C2973.31 105.161 2971.41 101.298 2967.62 98.2066C2963.97 94.9752 2958.91 92.5165 2952.45 90.8306L2933.27 85.7727C2926.11 83.9463 2919.79 81.2066 2914.31 77.5537C2908.83 73.7603 2904.55 69.124 2901.46 63.6446C2898.37 58.1653 2896.82 51.7727 2896.82 44.4669C2896.82 30.5579 2901.39 19.7397 2910.52 12.0124C2919.79 4.14464 2932.85 0.210754 2949.71 0.210754C2959.12 0.210754 2967.34 1.61571 2974.36 4.42563C2981.53 7.09505 2987.5 10.9587 2992.27 16.0165C2997.05 21.0744 3000.7 27.0455 3003.23 33.9298L2975.21 42.5702C2973.52 37.7934 2970.43 33.719 2965.93 30.3471C2961.44 26.9752 2955.75 25.2893 2948.87 25.2893C2941.84 25.2893 2936.29 26.905 2932.22 30.1364C2928.29 33.3678 2926.32 37.9339 2926.32 43.8347C2926.32 48.4711 2927.87 52.124 2930.96 54.7934C2934.19 57.4628 2938.54 59.5 2944.02 60.905L2963.41 65.7521C2976.05 68.843 2985.88 74.3926 2992.9 82.4008C2999.93 90.4091 3003.44 99.3306 3003.44 109.165C3003.44 117.876 3001.33 125.533 2997.12 132.136C2992.9 138.599 2986.79 143.657 2978.79 147.31C2970.78 150.963 2961.09 152.789 2949.71 152.789Z" fill="url(#paint21_linear_2_2)"/>
<path d="M3107.47 153C3098.76 153 3091.03 151.314 3084.29 147.942C3077.55 144.57 3072.28 139.934 3068.49 134.033C3064.69 128.132 3062.8 121.318 3062.8 113.591C3062.8 108.252 3063.78 103.335 3065.75 98.8388C3067.71 94.343 3070.45 90.1983 3073.97 86.405C3077.48 82.4711 3081.41 79.0289 3085.77 76.0785L3113.58 56.9008C3115.83 55.3554 3118.22 53.5992 3120.74 51.6322C3123.41 49.6653 3125.73 47.3471 3127.7 44.6777C3129.8 41.8678 3130.86 38.7066 3130.86 35.1942C3130.86 31.1198 3129.38 27.9587 3126.43 25.7108C3123.48 23.3223 3119.76 22.1281 3115.27 22.1281C3111.05 22.1281 3107.47 23.3223 3104.52 25.7108C3101.71 28.0992 3100.3 31.1901 3100.3 34.9835C3100.3 38.6364 3101.43 41.8678 3103.68 44.6777C3105.92 47.3471 3108.52 50.5083 3111.47 54.1612L3139.5 87.8802L3191.12 150.26H3158.67L3119.48 103.475L3089.98 67.6488C3086.19 62.7314 3083.03 58.4463 3080.5 54.7934C3078.11 51 3076.35 47.5579 3075.23 44.4669C3074.11 41.2355 3073.54 38.0041 3073.54 34.7727C3073.54 28.0289 3075.3 22.0579 3078.81 16.8595C3082.46 11.6612 3087.31 7.58678 3093.35 4.63637C3099.53 1.54546 3106.42 0 3114 0C3122.29 0 3129.66 1.54546 3136.13 4.63637C3142.59 7.58678 3147.64 11.7314 3151.3 17.0703C3155.09 22.4091 3156.99 28.6612 3156.99 35.8264C3156.99 41.5868 3155.51 46.9256 3152.56 51.843C3149.61 56.6198 3145.26 61.4669 3139.5 66.3843C3133.88 71.3017 3126.99 76.5703 3118.85 82.1901L3103.89 92.5165C3101.64 94.062 3099.53 95.8182 3097.57 97.7851C3095.74 99.7521 3094.26 102 3093.14 104.529C3092.02 106.917 3091.45 109.727 3091.45 112.959C3091.45 117.736 3093.07 121.669 3096.3 124.76C3099.67 127.851 3103.96 129.397 3109.15 129.397C3115.05 129.397 3120.88 128.483 3126.64 126.657C3132.4 124.831 3137.6 122.091 3142.24 118.438C3147.01 114.785 3150.73 110.289 3153.4 104.95C3156.07 99.6116 3157.41 93.5 3157.41 86.6157H3183.32C3183.32 99.5413 3180.09 111.062 3173.63 121.178C3167.17 131.153 3158.25 138.95 3146.87 144.57C3135.49 150.19 3122.36 153 3107.47 153Z" fill="url(#paint22_linear_2_2)"/>
<path d="M3313.28 152.789C3298.95 152.789 3286.24 149.558 3275.14 143.095C3264.04 136.492 3255.33 127.5 3249.01 116.12C3242.69 104.599 3239.53 91.3926 3239.53 76.5C3239.53 61.6074 3242.69 48.4711 3249.01 37.0909C3255.33 25.5703 3263.97 16.5785 3274.93 10.1157C3286.03 3.51241 3298.74 0.210754 3313.07 0.210754C3323.18 0.210754 3332.59 2.0372 3341.3 5.69008C3350.01 9.20249 3357.6 14.1901 3364.06 20.6529C3370.66 26.9752 3375.72 34.281 3379.23 42.5702L3352.47 52.4752C3350.08 47.2769 3346.92 42.781 3342.99 38.9876C3339.06 35.0537 3334.56 32.0331 3329.5 29.9256C3324.45 27.6777 3318.97 26.5537 3313.07 26.5537C3304.5 26.5537 3296.84 28.7314 3290.1 33.0868C3283.5 37.3017 3278.3 43.1322 3274.51 50.5785C3270.86 58.0248 3269.03 66.6653 3269.03 76.5C3269.03 86.3347 3270.93 95.0455 3274.72 102.632C3278.51 110.079 3283.78 115.979 3290.52 120.335C3297.26 124.55 3304.99 126.657 3313.7 126.657C3319.74 126.657 3325.22 125.533 3330.14 123.285C3335.19 120.897 3339.62 117.665 3343.41 113.591C3347.34 109.517 3350.5 104.81 3352.89 99.4711L3379.65 109.165C3376.14 117.736 3371.08 125.322 3364.48 131.926C3358.02 138.529 3350.43 143.657 3341.72 147.31C3333.01 150.963 3323.53 152.789 3313.28 152.789Z" fill="url(#paint23_linear_2_2)"/>
<path d="M3396.64 150.26V2.73967H3425.5V123.917H3490.4V150.26H3396.64Z" fill="url(#paint24_linear_2_2)"/>
<path d="M3505.6 150.26V2.73967H3534.46V150.26H3505.6Z" fill="url(#paint25_linear_2_2)"/>
<path d="M3562.29 150.26V2.73967H3655.64V29.0826H3591.16V62.5909H3646.79V88.3017H3591.16V123.917H3656.48V150.26H3562.29Z" fill="url(#paint26_linear_2_2)"/>
<path d="M3682.16 150.26V2.73967H3712.29L3784.35 101.789V2.73967H3813.01V150.26H3784.35L3711.03 49.314V150.26H3682.16Z" fill="url(#paint27_linear_2_2)"/>
<path d="M3872.1 150.26V29.0826H3827.85V2.73967H3945.01V29.0826H3900.97V150.26H3872.1Z" fill="url(#paint28_linear_2_2)"/>
<path d="M4009.27 152.789C4001.82 152.789 3994.87 151.876 3988.41 150.05C3981.95 148.223 3976.19 145.694 3971.13 142.463C3966.07 139.091 3961.86 135.368 3958.49 131.293C3955.26 127.219 3953.15 122.934 3952.17 118.438L3980.4 110.008C3982.23 114.785 3985.46 118.93 3990.09 122.442C3994.73 125.814 4000.56 127.57 4007.58 127.711C4015.03 127.851 4021.07 126.236 4025.7 122.864C4030.48 119.492 4032.87 115.136 4032.87 109.798C4032.87 105.161 4030.97 101.298 4027.18 98.2066C4023.53 94.9752 4018.47 92.5165 4012.01 90.8306L3992.83 85.7727C3985.67 83.9463 3979.35 81.2066 3973.87 77.5537C3968.39 73.7603 3964.11 69.124 3961.02 63.6446C3957.93 58.1653 3956.38 51.7727 3956.38 44.4669C3956.38 30.5579 3960.95 19.7397 3970.08 12.0124C3979.35 4.14464 3992.41 0.210754 4009.27 0.210754C4018.68 0.210754 4026.9 1.61571 4033.92 4.42563C4041.09 7.09505 4047.06 10.9587 4051.83 16.0165C4056.61 21.0744 4060.26 27.0455 4062.79 33.9298L4034.76 42.5702C4033.08 37.7934 4029.99 33.719 4025.49 30.3471C4021 26.9752 4015.31 25.2893 4008.43 25.2893C4001.4 25.2893 3995.85 26.905 3991.78 30.1364C3987.85 33.3678 3985.88 37.9339 3985.88 43.8347C3985.88 48.4711 3987.43 52.124 3990.52 54.7934C3993.75 57.4628 3998.1 59.5 4003.58 60.905L4022.97 65.7521C4035.61 68.843 4045.44 74.3926 4052.46 82.4008C4059.49 90.4091 4063 99.3306 4063 109.165C4063 117.876 4060.89 125.533 4056.68 132.136C4052.46 138.599 4046.35 143.657 4038.35 147.31C4030.34 150.963 4020.65 152.789 4009.27 152.789Z" fill="url(#paint29_linear_2_2)"/>
</g>
<defs>
<linearGradient id="paint0_linear_2_2" x1="2031.5" y1="0" x2="2031.5" y2="153" gradientUnits="userSpaceOnUse">
<stop stop-color="white"/>
<stop offset="1" stop-color="white" stop-opacity="0.8"/>
</linearGradient>
<linearGradient id="paint1_linear_2_2" x1="2031.5" y1="0" x2="2031.5" y2="153" gradientUnits="userSpaceOnUse">
<stop stop-color="white"/>
<stop offset="1" stop-color="white" stop-opacity="0.8"/>
</linearGradient>
<linearGradient id="paint2_linear_2_2" x1="2031.5" y1="0" x2="2031.5" y2="153" gradientUnits="userSpaceOnUse">
<stop stop-color="white"/>
<stop offset="1" stop-color="white" stop-opacity="0.8"/>
</linearGradient>
<linearGradient id="paint3_linear_2_2" x1="2031.5" y1="0" x2="2031.5" y2="153" gradientUnits="userSpaceOnUse">
<stop stop-color="white"/>
<stop offset="1" stop-color="white" stop-opacity="0.8"/>
</linearGradient>
<linearGradient id="paint4_linear_2_2" x1="2031.5" y1="0" x2="2031.5" y2="153" gradientUnits="userSpaceOnUse">
<stop stop-color="white"/>
<stop offset="1" stop-color="white" stop-opacity="0.8"/>
</linearGradient>
<linearGradient id="paint5_linear_2_2" x1="2031.5" y1="0" x2="2031.5" y2="153" gradientUnits="userSpaceOnUse">
<stop stop-color="white"/>
<stop offset="1" stop-color="white" stop-opacity="0.8"/>
</linearGradient>
<linearGradient id="paint6_linear_2_2" x1="2031.5" y1="0" x2="2031.5" y2="153" gradientUnits="userSpaceOnUse">
<stop stop-color="white"/>
<stop offset="1" stop-color="white" stop-opacity="0.8"/>
</linearGradient>
<linearGradient id="paint7_linear_2_2" x1="2031.5" y1="0" x2="2031.5" y2="153" gradientUnits="userSpaceOnUse">
<stop stop-color="white"/>
<stop offset="1" stop-color="white" stop-opacity="0.8"/>
</linearGradient>
<linearGradient id="paint8_linear_2_2" x1="2031.5" y1="0" x2="2031.5" y2="153" gradientUnits="userSpaceOnUse">
<stop stop-color="white"/>
<stop offset="1" stop-color="white" stop-opacity="0.8"/>
</linearGradient>
<linearGradient id="paint9_linear_2_2" x1="2031.5" y1="0" x2="2031.5" y2="153" gradientUnits="userSpaceOnUse">
<stop stop-color="white"/>
<stop offset="1" stop-color="white" stop-opacity="0.8"/>
</linearGradient>
<linearGradient id="paint10_linear_2_2" x1="2031.5" y1="0" x2="2031.5" y2="153" gradientUnits="userSpaceOnUse">
<stop stop-color="white"/>
<stop offset="1" stop-color="white" stop-opacity="0.8"/>
</linearGradient>
<linearGradient id="paint11_linear_2_2" x1="2031.5" y1="0" x2="2031.5" y2="153" gradientUnits="userSpaceOnUse">
<stop stop-color="white"/>
<stop offset="1" stop-color="white" stop-opacity="0.8"/>
</linearGradient>
<linearGradient id="paint12_linear_2_2" x1="2031.5" y1="0" x2="2031.5" y2="153" gradientUnits="userSpaceOnUse">
<stop stop-color="white"/>
<stop offset="1" stop-color="white" stop-opacity="0.8"/>
</linearGradient>
<linearGradient id="paint13_linear_2_2" x1="2031.5" y1="0" x2="2031.5" y2="153" gradientUnits="userSpaceOnUse">
<stop stop-color="white"/>
<stop offset="1" stop-color="white" stop-opacity="0.8"/>
</linearGradient>
<linearGradient id="paint14_linear_2_2" x1="2031.5" y1="0" x2="2031.5" y2="153" gradientUnits="userSpaceOnUse">
<stop stop-color="white"/>
<stop offset="1" stop-color="white" stop-opacity="0.8"/>
</linearGradient>
<linearGradient id="paint15_linear_2_2" x1="2031.5" y1="0" x2="2031.5" y2="153" gradientUnits="userSpaceOnUse">
<stop stop-color="white"/>
<stop offset="1" stop-color="white" stop-opacity="0.8"/>
</linearGradient>
<linearGradient id="paint16_linear_2_2" x1="2031.5" y1="0" x2="2031.5" y2="153" gradientUnits="userSpaceOnUse">
<stop stop-color="white"/>
<stop offset="1" stop-color="white" stop-opacity="0.8"/>
</linearGradient>
<linearGradient id="paint17_linear_2_2" x1="2031.5" y1="0" x2="2031.5" y2="153" gradientUnits="userSpaceOnUse">
<stop stop-color="white"/>
<stop offset="1" stop-color="white" stop-opacity="0.8"/>
</linearGradient>
<linearGradient id="paint18_linear_2_2" x1="2031.5" y1="0" x2="2031.5" y2="153" gradientUnits="userSpaceOnUse">
<stop stop-color="white"/>
<stop offset="1" stop-color="white" stop-opacity="0.8"/>
</linearGradient>
<linearGradient id="paint19_linear_2_2" x1="2031.5" y1="0" x2="2031.5" y2="153" gradientUnits="userSpaceOnUse">
<stop stop-color="white"/>
<stop offset="1" stop-color="white" stop-opacity="0.8"/>
</linearGradient>
<linearGradient id="paint20_linear_2_2" x1="2031.5" y1="0" x2="2031.5" y2="153" gradientUnits="userSpaceOnUse">
<stop stop-color="white"/>
<stop offset="1" stop-color="white" stop-opacity="0.8"/>
</linearGradient>
<linearGradient id="paint21_linear_2_2" x1="2031.5" y1="0" x2="2031.5" y2="153" gradientUnits="userSpaceOnUse">
<stop stop-color="white"/>
<stop offset="1" stop-color="white" stop-opacity="0.8"/>
</linearGradient>
<linearGradient id="paint22_linear_2_2" x1="2031.5" y1="0" x2="2031.5" y2="153" gradientUnits="userSpaceOnUse">
<stop stop-color="white"/>
<stop offset="1" stop-color="white" stop-opacity="0.8"/>
</linearGradient>
<linearGradient id="paint23_linear_2_2" x1="2031.5" y1="0" x2="2031.5" y2="153" gradientUnits="userSpaceOnUse">
<stop stop-color="white"/>
<stop offset="1" stop-color="white" stop-opacity="0.8"/>
</linearGradient>
<linearGradient id="paint24_linear_2_2" x1="2031.5" y1="0" x2="2031.5" y2="153" gradientUnits="userSpaceOnUse">
<stop stop-color="white"/>
<stop offset="1" stop-color="white" stop-opacity="0.8"/>
</linearGradient>
<linearGradient id="paint25_linear_2_2" x1="2031.5" y1="0" x2="2031.5" y2="153" gradientUnits="userSpaceOnUse">
<stop stop-color="white"/>
<stop offset="1" stop-color="white" stop-opacity="0.8"/>
</linearGradient>
<linearGradient id="paint26_linear_2_2" x1="2031.5" y1="0" x2="2031.5" y2="153" gradientUnits="userSpaceOnUse">
<stop stop-color="white"/>
<stop offset="1" stop-color="white" stop-opacity="0.8"/>
</linearGradient>
<linearGradient id="paint27_linear_2_2" x1="2031.5" y1="0" x2="2031.5" y2="153" gradientUnits="userSpaceOnUse">
<stop stop-color="white"/>
<stop offset="1" stop-color="white" stop-opacity="0.8"/>
</linearGradient>
<linearGradient id="paint28_linear_2_2" x1="2031.5" y1="0" x2="2031.5" y2="153" gradientUnits="userSpaceOnUse">
<stop stop-color="white"/>
<stop offset="1" stop-color="white" stop-opacity="0.8"/>
</linearGradient>
<linearGradient id="paint29_linear_2_2" x1="2031.5" y1="0" x2="2031.5" y2="153" gradientUnits="userSpaceOnUse">
<stop stop-color="white"/>
<stop offset="1" stop-color="white" stop-opacity="0.8"/>
</linearGradient>
</defs>
</svg>
